<?xml version="1.0" encoding="iso-8859-1"?>
<!-- Generator: Adobe Illustrator 19.0.0, SVG Export Plug-In . SVG Version: 6.00 Build 0)  -->
<svg xmlns="http://www.w3.org/2000/svg" xmlns:xlink="http://www.w3.org/1999/xlink" version="1.1" id="Layer_1" x="0px" y="0px" viewBox="0 0 490.26 490.26" style="enable-background:new 0 0 490.26 490.26;" xml:space="preserve" width="512" height="512">
<g>
	<g>
		<circle style="fill:#0185FF;" cx="245.13" cy="245.13" r="245.13"/>
	</g>
	<g>
		<path style="fill:#4D5BE9;" d="M490.26,245.13c0,135.38-109.75,245.13-245.13,245.13S0,380.51,0,245.13H490.26z"/>
	</g>
	<g>
		<path style="fill:#FFC475;" d="M357.98,109.13c-8.29,0-15,6.72-15,15v152.65c-49.63-37.76-121.62-2.27-121.62,60.35    c0,41.81,34.01,75.82,75.81,75.82s75.81-34.01,75.81-75.82v-213C372.98,115.85,366.26,109.13,357.98,109.13z M297.17,382.95    c-25.26,0-45.81-20.56-45.81-45.82c0-25.25,20.55-45.8,45.81-45.8s45.81,20.55,45.81,45.8    C342.98,362.39,322.43,382.95,297.17,382.95z"/>
	</g>
	<g>
		<path style="fill:#FFA722;" d="M342.98,245.13v31.65c-49.63-37.76-121.62-2.27-121.62,60.35c0,41.81,34.01,75.82,75.81,75.82    s75.81-34.01,75.81-75.82v-92H342.98z M297.17,382.95c-25.26,0-45.81-20.56-45.81-45.82c0-25.25,20.55-45.8,45.81-45.8    s45.81,20.55,45.81,45.8C342.98,362.39,322.43,382.95,297.17,382.95z"/>
	</g>
	<g>
		<path style="fill:#FFC475;" d="M132.282,160.989h161.181c8.284,0,15-6.716,15-15s-6.716-15-15-15H132.282c-8.284,0-15,6.716-15,15    S123.998,160.989,132.282,160.989z"/>
	</g>
	<g>
		<path style="fill:#FFC475;" d="M293.463,193.903H132.282c-8.284,0-15,6.716-15,15s6.716,15,15,15h161.181c8.284,0,15-6.716,15-15    S301.747,193.903,293.463,193.903z"/>
	</g>
	<g>
		<path style="fill:#FFA722;" d="M210.613,256.817h-78.331c-8.284,0-15,6.716-15,15s6.716,15,15,15h78.331c8.284,0,15-6.716,15-15    S218.897,256.817,210.613,256.817z"/>
	</g>
	<g>
		<path style="fill:#FFA722;" d="M178.328,319.73h-46.046c-8.284,0-15,6.716-15,15s6.716,15,15,15h46.046c8.284,0,15-6.716,15-15    S186.612,319.73,178.328,319.73z"/>
	</g>
</g>















</svg>
