<svg height="512pt" viewBox="0 0 512 512" width="512pt" xmlns="http://www.w3.org/2000/svg" xmlns:xlink="http://www.w3.org/1999/xlink"><linearGradient id="a" gradientUnits="userSpaceOnUse" x1="0" x2="512" y1="256" y2="256"><stop offset="0" stop-color="#00f1ff"/><stop offset=".231" stop-color="#00d8ff"/><stop offset=".5138" stop-color="#00c0ff"/><stop offset=".7773" stop-color="#00b2ff"/><stop offset="1" stop-color="#00adff"/></linearGradient><path d="m512 256c0 141.386719-114.613281 256-256 256s-256-114.613281-256-256 114.613281-256 256-256 256 114.613281 256 256zm0 0" fill="url(#a)"/><g fill="#fff"><path d="m193.011719 399.167969h-73.699219c-5.5625 0-8.917969-3.101563-10.421875-4.953125-2.601563-3.195313-3.605469-7.359375-2.757813-11.421875 14.4375-69.355469 75.636719-120.007813 146.292969-121.664063 1.1875.042969 2.378907.070313 3.574219.070313 1.191406 0 2.378906-.027344 3.5625-.070313 18.34375.445313 36.589844 4.324219 54.289062 11.554688 7.667969 3.132812 16.425782-.542969 19.558594-8.214844 3.132813-7.667969-.542968-16.421875-8.214844-19.558594-3.429687-1.398437-6.878906-2.679687-10.34375-3.871094 22.695313-17.609374 37.332032-45.136718 37.332032-76.023437 0-53.035156-43.148438-96.183594-96.183594-96.183594s-96.1875 43.148438-96.1875 96.183594c0 30.796875 14.554688 58.261719 37.140625 75.878906-20.699219 7.050781-40.128906 17.78125-57.1875 31.8125-32.183594 26.472657-54.5625 63.394531-63.007813 103.972657-2.691406 12.9375.535157 26.230468 8.855469 36.464843 8.285157 10.183594 20.566407 16.023438 33.695313 16.023438h73.699218c8.285157 0 15-6.714844 15-15 .003907-8.28125-6.710937-15-14.996093-15zm-3.195313-234.152344c0-36.492187 29.691406-66.183594 66.183594-66.183594 36.496094 0 66.1875 29.691407 66.1875 66.183594 0 35.457031-28.023438 64.480469-63.082031 66.105469-1.035157-.015625-2.070313-.035156-3.101563-.035156-1.078125 0-2.15625.015624-3.230468.03125-35.003907-1.6875-62.957032-30.6875-62.957032-66.101563zm0 0"/><path d="m400.171875 285.789062h-46.191406c-8.28125 0-15 6.71875-15 15 0 8.285157 6.71875 15 15 15h32.523437l-47.707031 47.589844c-1.15625 1.152344-3.003906 1.191406-4.207031.09375l-7.140625-6.535156c-13.160157-12.039062-33.886719-11.34375-46.226563 1.582031l-43.09375 45.3125c-5.707031 6.003907-5.46875 15.496094.535156 21.207031 2.902344 2.761719 6.621094 4.128907 10.332032 4.128907 3.96875 0 7.925781-1.5625 10.875-4.660157l43.066406-45.292968c1.136719-1.191406 3.046875-1.253906 4.257812-.144532l7.144532 6.53125c13.058594 11.953126 33.109375 11.519532 45.644531-.984374l46.183594-46.070313v31.53125c0 8.28125 6.71875 15 15 15 8.285156 0 15-6.71875 15-15v-48.292969c0-19.847656-16.144531-35.996094-35.996094-35.996094zm0 0"/></g></svg>