<?xml version="1.0" encoding="iso-8859-1"?>
<!-- Generator: Adobe Illustrator 19.0.0, SVG Export Plug-In . SVG Version: 6.00 Build 0)  -->
<svg version="1.1" id="Capa_1" xmlns="http://www.w3.org/2000/svg" xmlns:xlink="http://www.w3.org/1999/xlink" x="0px" y="0px"
	 viewBox="0 0 471.249 471.249" style="enable-background:new 0 0 471.249 471.249;" xml:space="preserve">
<g>
	<path style="fill:#4DCFE0;" d="M211.069,297.273c-8.882,0-15.673-6.792-15.673-15.673v-91.951c0-8.882,6.792-15.673,15.673-15.673
		s15.673,6.792,15.673,15.673V281.6C226.743,290.482,219.951,297.273,211.069,297.273z"/>
	<path style="fill:#4DCFE0;" d="M162.482,345.861c-8.882,0-15.673-6.792-15.673-15.673V141.061c0-8.882,6.792-15.673,15.673-15.673
		s15.673,6.792,15.673,15.673v189.127C178.155,339.069,171.363,345.861,162.482,345.861z"/>
	<path style="fill:#4DCFE0;" d="M113.371,391.314c-8.882,0-15.673-6.792-15.673-15.673V95.608c0-8.882,6.792-15.673,15.673-15.673
		s15.673,6.792,15.673,15.673v280.033C129.045,384.522,122.253,391.314,113.371,391.314z"/>
	<path style="fill:#4DCFE0;" d="M64.784,345.861c-8.882,0-15.673-6.792-15.673-15.673V141.061c0-8.882,6.792-15.673,15.673-15.673
		s15.673,6.792,15.673,15.673v189.127C80.457,339.069,73.665,345.861,64.784,345.861z"/>
	<path style="fill:#4DCFE0;" d="M15.673,300.408C6.792,300.408,0,293.616,0,284.735v-98.22c0-8.882,6.792-15.673,15.673-15.673
		s15.673,6.792,15.673,15.673v98.22C31.347,293.616,24.555,300.408,15.673,300.408z"/>
</g>
<g>
	<path style="fill:#1185E0;" d="M357.878,391.314c-8.882,0-15.673-6.792-15.673-15.673V95.608c0-8.882,6.792-15.673,15.673-15.673
		c8.882,0,15.673,6.792,15.673,15.673v280.033C373.551,384.522,366.759,391.314,357.878,391.314z"/>
	<path style="fill:#1185E0;" d="M308.767,345.861c-8.882,0-15.673-6.792-15.673-15.673V141.061c0-8.882,6.792-15.673,15.673-15.673
		s15.673,6.792,15.673,15.673v189.127C324.441,339.069,317.649,345.861,308.767,345.861z"/>
	<path style="fill:#1185E0;" d="M260.18,321.306c-8.882,0-15.673-6.792-15.673-15.673V165.616c0-8.882,6.792-15.673,15.673-15.673
		c8.882,0,15.673,6.792,15.673,15.673v140.016C275.853,314.514,269.061,321.306,260.18,321.306z"/>
	<path style="fill:#1185E0;" d="M406.465,345.861c-8.882,0-15.673-6.792-15.673-15.673V141.061c0-8.882,6.792-15.673,15.673-15.673
		c8.882,0,15.673,6.792,15.673,15.673v189.127C422.139,339.069,415.347,345.861,406.465,345.861z"/>
	<path style="fill:#1185E0;" d="M455.576,300.408c-8.882,0-15.673-6.792-15.673-15.673v-98.22c0-8.882,6.792-15.673,15.673-15.673
		s15.673,6.792,15.673,15.673v98.22C471.249,293.616,464.457,300.408,455.576,300.408z"/>
</g>
<g>
</g>
<g>
</g>
<g>
</g>
<g>
</g>
<g>
</g>
<g>
</g>
<g>
</g>
<g>
</g>
<g>
</g>
<g>
</g>
<g>
</g>
<g>
</g>
<g>
</g>
<g>
</g>
<g>
</g>
</svg>
